<svg version="1.2" xmlns="http://www.w3.org/2000/svg" viewBox="0 0 800 86">
	<title>Logo</title>
	<style>
		.s0 { fill: #04df16 }
		.s1 { fill: #f2fff0 }
	</style>
	<path id="wallstreet local" class="s0" aria-label="wallstreet local"
		d="m67 83h-18.5l-3.1-41 0.3-9h0.7l-3.5 9-18.9 41h-18.7l-4.7-61h15.6l1.4 43v9.3h-0.8l3.9-9.3 20.2-43h15.1l3.5 43 0.1 9.2h-0.9l3.5-9.2 18.3-43h15zm45.4-41h-14.6q2.9-10.6 10.9-16.1 8.1-5.7 19.5-5.7 8.1 0 13.1 2.6 5.2 2.4 7.5 6.8 2.5 4.3 2.5 9.7 0 1.3-0.2 2.8-0.1 1.3-0.3 2.7l-4.5 23.2q-0.8 3.9-1.1 6.6-0.3 2.7-0.3 4.8 0 1 0.1 1.9 0.1 0.8 0.3 1.7h-15.2q-0.1-0.5-0.3-1.1 0.1-0.6 0.1-1.2 0-2.1 0.3-4.8 0.5-2.9 1-5.7l5-25.8q0.2-1 0.2-1.9 0.2-1.1 0.2-1.9 0-4.1-2.6-6.2-2.4-2.1-7.7-2.1-5.3 0-8.8 2.7-3.4 2.6-5.1 7zm25.5 3.8l-1.8 9q-8.7 0-14.5 0.9-5.8 0.9-9.2 2.6-3.3 1.6-4.8 3.8-1.4 2.2-1.4 4.9 0 3.5 2.2 5.3 2.2 1.6 6 1.6 4.6 0 8.6-2.2 4.1-2.2 6.9-5.9 2.9-3.8 3.8-8.4h6.4q-2.3 9.5-7.3 15.6-4.9 6-11.1 8.8-5.9 2.8-11.9 2.8-8.3 0-13.6-4-5.1-4.2-5.1-12 0-6.4 4-11.4 4.1-5.1 11.8-7.7 4.9-1.7 9.4-2.4 4.5-0.9 9.6-1.1 5.2-0.2 12-0.2zm34 37.2h-14.7l16-82.1h14.6zm27.9 0h-14.6l16-82h14.6zm35-43.9q0 2.5 1.7 4 1.8 1.3 4.7 2.1 2.9 0.8 6.4 1.5 3.5 0.7 6.9 1.7 3.6 1 6.4 2.8 3 1.7 4.7 4.7 1.8 2.9 1.8 7.7 0 5.3-3.3 10.1-3.3 4.9-9.7 8-6.2 2.9-15.4 2.9-8 0-13.8-2.6-5.6-2.7-8.6-7.5-3.1-4.9-3.2-11.5h14.6q0.1 2.7 1.2 5.1 1.3 2.4 3.9 3.9 2.6 1.4 6.7 1.4 4.2 0 7-1 2.8-1.2 4.2-3 1.4-2 1.4-4.3 0-2.6-1.8-3.9-1.6-1.5-4.5-2.3-2.9-0.9-6.3-1.5-3.4-0.7-6.8-1.7-3.5-1-6.4-2.7-2.8-1.9-4.6-4.8-1.7-3.1-1.7-7.9 0-5.3 3.1-9.9 3.1-4.6 8.9-7.4 5.9-2.8 14-2.8 10.8 0 17.2 5.5 6.5 5.5 6.9 16.3h-14.3q-0.1-5.3-2.7-7.8-2.7-2.7-8.2-2.7-3.3 0-5.6 1.1-2.3 1-3.7 2.7-1.1 1.7-1.1 3.8zm44.6 24.6l10.9-55.9h14.6l-10.6 54.6q-0.2 1.2-0.4 2.3-0.1 1-0.1 1.8 0 3.1 1.7 4.6 1.9 1.3 6 1.3h3.5l-2.1 10.8q-1.3 0.6-3.8 1.1-2.4 0.3-5.4 0.3-7.8 0-11.5-3.1-3.7-3.2-3.7-10.1 0-1.7 0.3-3.5 0.2-2 0.6-4.2zm33.4-30.5h-35.3l2.2-11.3h35.3zm13.5 49.8h-14.7l11.9-61.1h14.6zm6.4-32.5h-5.9q2.5-10.3 6.7-16.9 4.3-6.8 9.6-10 5.4-3.3 11.3-3.3 5 0 6.5 1.7l-2.5 12.6q-1.3-0.4-3-0.6-1.5-0.1-3.5-0.1-4.3 0-7.5 1.2-3.3 1-5.7 3.3-2.3 2.1-3.8 5.2-1.5 3-2.2 6.9zm33.2-4.2h45.7l-9.5 6q0.4-2 0.6-3.8 0.2-1.9 0.2-3.5 0-6.3-2.8-9.5-2.8-3.3-8.3-3.3-4.3 0-7.8 2.3-3.5 2.2-6 6.2-2.5 3.7-3.8 8.5-1.3 4.8-1.3 9.8 0 6.9 2.9 10.4 3 3.4 8.7 3.4 5.2 0 9.2-2.3 4.1-2.4 6.3-7.4h15.2q-2.9 7.3-7.9 12.2-4.9 4.7-11.1 7.1-6.2 2.3-13 2.3-11.6 0-18.6-6.4-6.7-6.6-6.7-18.5 0-7.8 2.4-14.9 2.6-7.1 7.3-12.7 4.7-5.5 11.1-8.6 6.5-3.3 14.3-3.3 11.9 0 18.1 6.7 6.5 6.5 6.5 17.5 0 1.8-0.3 3.9-0.1 2-0.5 4l-0.5 3h-52.1zm66.2 0h45.7l-9.5 6q0.4-2 0.6-3.8 0.2-1.9 0.2-3.5 0-6.3-2.8-9.5-2.8-3.3-8.3-3.3-4.3 0-7.8 2.3-3.5 2.2-6 6.1-2.5 3.8-3.8 8.6-1.3 4.8-1.3 9.8 0 6.9 2.9 10.4 3 3.4 8.7 3.4 5.2 0 9.2-2.3 4.1-2.4 6.3-7.4h15.2q-2.9 7.3-7.9 12.2-4.9 4.7-11.1 7-6.2 2.4-13 2.4-11.6 0-18.6-6.5-6.7-6.6-6.7-18.4 0-7.8 2.4-14.9 2.6-7.2 7.3-12.7 4.7-5.6 11.1-8.7 6.5-3.2 14.3-3.2 11.9 0 18.1 6.7 6.5 6.4 6.5 17.5 0 1.8-0.3 3.9-0.1 2-0.5 4l-0.5 3h-52.1zm61.6 17.5l10.8-55.9h14.6l-10.5 54.6q-0.2 1.1-0.4 2.3-0.1 1-0.1 1.8 0 3.1 1.7 4.6 1.9 1.3 6 1.3h3.5l-2.1 10.8q-1.4 0.6-3.9 1.1-2.3 0.3-5.4 0.3-7.7 0-11.4-3.2-3.7-3.1-3.7-10 0-1.7 0.2-3.5 0.3-2 0.7-4.2zm33.4-30.6h-35.3l2.2-11.2h35.3z" />
	<path id="wallstreet local" class="s1" aria-label="wallstreet local"
		d="m567.8 83h-22.1v-82.1h22.1zm38.5 2.2q-9.7 0-16.9-4-7-4.1-10.9-11.5-3.9-7.4-3.9-17.5 0-10.6 3.9-18 4-7.5 11.1-11.3 7.2-3.9 16.7-3.9 9.7 0 16.7 4.1 7.2 4 11.1 11.4 3.9 7.4 3.9 17.7 0 10.4-4 17.9-3.9 7.2-11.1 11.2-7 3.9-16.6 3.9zm0-17.7q4.4 0 6.7-3.8 2.3-4 2.3-11.5 0-7.7-2.3-11.6-2.3-3.9-6.7-3.9-4.5 0-6.7 3.9-2.3 3.9-2.3 11.6 0 7.5 2.3 11.5 2.2 3.8 6.7 3.8zm96.2-23.4h-22.1q-0.6-4.5-2.5-6-2-1.4-4.3-1.4-4.2 0-6.3 3.9-2.1 3.9-2.1 11.6 0 7.5 2.2 11.5 2.3 3.8 6.8 3.8 2.5 0 4.1-1.4 1.7-1.6 2.4-4.6h22.1q-1.9 11.7-9.9 17.8-8 5.9-19.1 5.9-9.6 0-16.7-4-6.9-4.1-10.8-11.5-3.8-7.4-3.8-17.5 0-10.6 3.9-18 3.9-7.5 10.8-11.3 7.1-3.9 16.4-3.9 7.5 0 13.6 2.7 6.2 2.8 10.1 8.3 4.2 5.6 5.2 14.1zm28.9-2.3h-22.1q0.9-7.1 4.9-12.1 4-5.1 10.4-7.9 6.5-2.8 14.6-2.8 9.2 0 15.5 3.3 6.2 3.3 9.4 9 3.3 5.6 3.3 12.8v23.3q0 6.4 0.5 9.9 0.6 3.5 1 5.7h-22.7q-0.4-2.3-0.6-5.8-0.3-3.5-0.3-7.6v-25.9q0-3.6-1.8-5.3-1.8-1.7-5.1-1.7-3.2 0-4.9 1.4-1.6 1.5-2.1 3.7zm16.5 3.4v11.6q-5.5 0-9.2 0.7-3.6 0.7-5.8 2-2 1.1-3 2.7-0.9 1.5-0.9 3.3 0 2.4 1.6 4 1.6 1.5 4.5 1.5 2.7 0 5-1.5 2.4-1.5 3.7-4.2 1.5-2.8 1.5-6.3h5.8q-0.4 7.2-2.6 12.2-2 4.9-5.3 8.1-3.3 3.1-7.6 4.5-4.2 1.4-8.7 1.4-5.5 0-10.1-1.9-4.4-2.1-7.1-6.1-2.7-4.1-2.7-10 0-6.3 3.8-11.1 3.8-4.7 11.4-7.4 6.4-2.2 12.5-2.8 6.3-0.7 13.2-0.7zm51.4 37.8h-22.1v-82h22.1z" />
</svg>